<svg xmlns="http://www.w3.org/2000/svg" xmlns:xlink="http://www.w3.org/1999/xlink" contentStyleType="text/css" data-diagram-type="DESCRIPTION" height="459px" preserveAspectRatio="none" style="width:1729px;height:459px;background:#FFFFFF;" version="1.1" viewBox="0 0 1729 459" width="1729px" zoomAndPan="magnify"><defs/><g><!--cluster Frontend--><g class="cluster" data-entity="Frontend" data-source-line="1" data-uid="ent0002" id="cluster_Frontend"><path d="M545.5,6 L618.7285,6 A3.75,3.75 0 0 1 621.2285,8.5 L628.2285,28.2969 L916.5,28.2969 A2.5,2.5 0 0 1 919,30.7969 L919,117.09 A2.5,2.5 0 0 1 916.5,119.59 L545.5,119.59 A2.5,2.5 0 0 1 543,117.09 L543,8.5 A2.5,2.5 0 0 1 545.5,6" fill="none" style="stroke:#000000;stroke-width:1.5;"/><line style="stroke:#000000;stroke-width:1.5;" x1="543" x2="628.2285" y1="28.2969" y2="28.2969"/><text fill="#000000" font-family="sans-serif" font-size="14" font-weight="bold" lengthAdjust="spacing" textLength="72.2285" x="547" y="20.9951">Frontend</text></g><!--cluster Servicos SOA--><g class="cluster" data-entity="Servicos SOA" data-source-line="6" data-uid="ent0005" id="cluster_Servicos SOA"><polygon fill="none" points="16,153.59,26,143.59,1485,143.59,1485,252.19,1475,262.19,16,262.19,16,153.59" style="stroke:#181818;stroke-width:1;"/><line style="stroke:#181818;stroke-width:1;" x1="1475" x2="1485" y1="153.59" y2="143.59"/><line style="stroke:#181818;stroke-width:1;" x1="16" x2="1475" y1="153.59" y2="153.59"/><line style="stroke:#181818;stroke-width:1;" x1="1475" x2="1475" y1="153.59" y2="262.19"/><text fill="#000000" font-family="sans-serif" font-size="14" font-weight="bold" lengthAdjust="spacing" textLength="104.3506" x="694.3247" y="169.5851">Servicos SOA</text></g><!--cluster APIs Externas--><g class="cluster" data-entity="APIs Externas" data-source-line="26" data-uid="ent0021" id="cluster_APIs Externas"><path d="M40.1088,317.6736 C52.3653,287.332 80.0509,288.8412 95.9974,313.9548 C115.2787,286.0656 145.1393,278.1304 163.8874,314.518 C180.2368,292.3787 199.9919,286.9181 217.0923,313.7013 C238.3878,284.3489 259.9887,281.8571 282.8243,311.9998 C297.5573,287.7123 321.0753,282.1724 339.6823,307.5662 C359.1466,280.4449 379.1929,275.5156 402.4519,303.222 C424.4972,273.1488 442.2175,280.9762 461.6911,305.9877 C477.5961,285.269 499.4199,280.7879 513.8612,307.5945 C534.1218,283.2127 554.4912,278.2557 573.3446,309.1098 C593.0002,273.9298 619.4053,277.5832 639.1871,308.985 C660.4148,275.1407 679.8923,279.4483 701.594,308.5147 C718.5165,281.2259 741.6161,290.3901 753.7964,313.4332 C774.281,288.5186 799.6113,288.1705 817.4486,316.5925 C834.7762,284.1458 861.2421,282.8457 879,316.19 C881.424,316.5616 882.0844,318.2944 880.6904,320.2541 C891.6288,322.0127 894.4797,331.7394 888.043,339.9758 C898.8279,344.0619 903.347,353.6325 892.8012,362.2709 C898.7277,370.9899 896.3063,379.4038 885.5256,381.9439 C894.2512,397.3548 889.9185,405.8793 872,406.78 C876.1984,402.2623 880.0386,402.8016 882.3474,408.6637 C869.2133,446.3481 838.8813,441.4972 817.3744,417.4804 C793.4859,445.7789 773.8839,439.095 758.0077,409.2934 C738.6681,436.5774 720.2242,435.6125 698.5721,411.9936 C682.2562,437.8625 657.8425,441.1635 642.7545,410.7754 C626.1191,440.4167 595.5467,444.6159 573.8896,416.7934 C558.8623,440.2705 536.6063,440.4564 522.8522,415.453 C503.5283,445.6374 475.6222,446.736 459.3908,412.4107 C441.8969,437.5911 424.9214,444.9278 402.4776,417.796 C379.8452,446.4792 357.7384,452.3678 335.892,416.9791 C315.7638,438.8246 292.041,435.4669 278.2443,409.3664 C265.7435,446.4255 236.9015,442.4772 215.2411,418.8804 C197.0003,441.2911 171.7771,435.5934 160.9239,410.4433 C146.3486,440.6639 126.251,440.7786 104.6241,417.9232 C75.5268,444.8368 40.0339,444.9305 28,399.78 C29.2406,398.638 30.9167,398.7563 31.2511,400.7267 C20.9381,395.1622 18.881,387.104 28.4388,378.9709 C19.772,374.6706 18.9235,368.3837 25.9939,361.8377 C16.3227,354.6768 15.3901,346.0695 26.2384,339.1294 C14.6037,325.7415 19.7422,314.7079 35,309.19 C40.7703,308.65 42.9269,313.0417 40.1088,317.6736" fill="none" style="stroke:#181818;stroke-width:1;"/><text fill="#000000" font-family="sans-serif" font-size="14" font-weight="bold" lengthAdjust="spacing" textLength="108.9443" x="399.0278" y="327.1851">APIs Externas</text></g><!--cluster Bancos de Dados--><g class="cluster" data-entity="Bancos de Dados" data-source-line="33" data-uid="ent0026" id="cluster_Bancos de Dados"><path d="M911,296.19 C911,286.19 1311.5,286.19 1311.5,286.19 C1311.5,286.19 1712,286.19 1712,296.19 L1712,404.78 C1712,414.78 1311.5,414.78 1311.5,414.78 C1311.5,414.78 911,414.78 911,404.78 L911,296.19" fill="none" style="stroke:#181818;stroke-width:1;"/><path d="M911,296.19 C911,306.19 1311.5,306.19 1311.5,306.19 C1311.5,306.19 1712,306.19 1712,296.19" fill="none" style="stroke:#181818;stroke-width:1;"/><text fill="#000000" font-family="sans-serif" font-size="14" font-weight="bold" lengthAdjust="spacing" textLength="134.6406" x="1244.1797" y="321.1851">Bancos de Dados</text></g><!--entity Frontend Cliente--><g class="entity" data-entity="Frontend Cliente" data-source-line="2" data-uid="ent0003" id="entity_Frontend Cliente"><rect fill="#F1F1F1" height="62.5938" rx="2.5" ry="2.5" style="stroke:#181818;stroke-width:0.5;" width="156.7031" x="558.65" y="41"/><rect fill="#F1F1F1" height="10" style="stroke:#181818;stroke-width:0.5;" width="15" x="695.3531" y="46"/><rect fill="#F1F1F1" height="2" style="stroke:#181818;stroke-width:0.5;" width="4" x="693.3531" y="48"/><rect fill="#F1F1F1" height="2" style="stroke:#181818;stroke-width:0.5;" width="4" x="693.3531" y="52"/><text fill="#000000" font-family="sans-serif" font-size="14" font-style="italic" lengthAdjust="spacing" textLength="94.6709" x="584.6661" y="73.9951">&#171;executable&#187;</text><text fill="#000000" font-family="sans-serif" font-size="14" lengthAdjust="spacing" textLength="116.7031" x="573.65" y="90.292">Frontend Cliente</text></g><!--entity Frontend Admin--><g class="entity" data-entity="Frontend Admin" data-source-line="3" data-uid="ent0004" id="entity_Frontend Admin"><rect fill="#F1F1F1" height="62.5938" rx="2.5" ry="2.5" style="stroke:#181818;stroke-width:0.5;" width="152.4238" x="750.79" y="41"/><rect fill="#F1F1F1" height="10" style="stroke:#181818;stroke-width:0.5;" width="15" x="883.2138" y="46"/><rect fill="#F1F1F1" height="2" style="stroke:#181818;stroke-width:0.5;" width="4" x="881.2138" y="48"/><rect fill="#F1F1F1" height="2" style="stroke:#181818;stroke-width:0.5;" width="4" x="881.2138" y="52"/><text fill="#000000" font-family="sans-serif" font-size="14" font-style="italic" lengthAdjust="spacing" textLength="94.6709" x="774.6665" y="73.9951">&#171;executable&#187;</text><text fill="#000000" font-family="sans-serif" font-size="14" lengthAdjust="spacing" textLength="112.4238" x="765.79" y="90.292">Frontend Admin</text></g><!--entity FS_IF--><g class="entity" data-entity="FS_IF" data-source-line="7" data-uid="ent0006" id="entity_FS_IF"><ellipse cx="329" cy="214.89" fill="#F1F1F1" rx="8" ry="8" style="stroke:#181818;stroke-width:0.5;"/><text fill="#000000" font-family="sans-serif" font-size="14" lengthAdjust="spacing" textLength="87.4863" x="285.2568" y="244.8851">FlightSearch</text></g><!--entity BK_IF--><g class="entity" data-entity="BK_IF" data-source-line="8" data-uid="ent0007" id="entity_BK_IF"><ellipse cx="637" cy="214.89" fill="#F1F1F1" rx="8" ry="8" style="stroke:#181818;stroke-width:0.5;"/><text fill="#000000" font-family="sans-serif" font-size="14" lengthAdjust="spacing" textLength="56.4922" x="608.7539" y="244.8851">Booking</text></g><!--entity AUTH_IF--><g class="entity" data-entity="AUTH_IF" data-source-line="9" data-uid="ent0008" id="entity_AUTH_IF"><ellipse cx="899" cy="214.89" fill="#F1F1F1" rx="8" ry="8" style="stroke:#181818;stroke-width:0.5;"/><text fill="#000000" font-family="sans-serif" font-size="14" lengthAdjust="spacing" textLength="32.8125" x="882.5938" y="244.8851">Auth</text></g><!--entity LOC_IF--><g class="entity" data-entity="LOC_IF" data-source-line="10" data-uid="ent0009" id="entity_LOC_IF"><ellipse cx="41" cy="214.89" fill="#F1F1F1" rx="8" ry="8" style="stroke:#181818;stroke-width:0.5;"/><text fill="#000000" font-family="sans-serif" font-size="14" lengthAdjust="spacing" textLength="59.459" x="11.2705" y="244.8851">Location</text></g><!--entity MGMT_IF--><g class="entity" data-entity="MGMT_IF" data-source-line="11" data-uid="ent0010" id="entity_MGMT_IF"><ellipse cx="1197" cy="214.89" fill="#F1F1F1" rx="8" ry="8" style="stroke:#181818;stroke-width:0.5;"/><text fill="#000000" font-family="sans-serif" font-size="14" lengthAdjust="spacing" textLength="92.2236" x="1150.8882" y="244.8851">Management</text></g><!--entity SEARCH--><g class="entity" data-entity="SEARCH" data-source-line="13" data-uid="ent0011" id="entity_SEARCH"><rect fill="#F1F1F1" height="62.5938" rx="2.5" ry="2.5" style="stroke:#181818;stroke-width:0.5;" width="220.5439" x="372.73" y="183.59"/><rect fill="#F1F1F1" height="10" style="stroke:#181818;stroke-width:0.5;" width="15" x="573.2739" y="188.59"/><rect fill="#F1F1F1" height="2" style="stroke:#181818;stroke-width:0.5;" width="4" x="571.2739" y="190.59"/><rect fill="#F1F1F1" height="2" style="stroke:#181818;stroke-width:0.5;" width="4" x="571.2739" y="194.59"/><text fill="#000000" font-family="sans-serif" font-size="14" font-style="italic" lengthAdjust="spacing" textLength="67.2793" x="444.3623" y="216.5851">&#171;service&#187;</text><text fill="#000000" font-family="sans-serif" font-size="14" lengthAdjust="spacing" textLength="180.5439" x="387.73" y="232.882">Servico de Busca de Voos</text></g><!--entity BOOKING--><g class="entity" data-entity="BOOKING" data-source-line="14" data-uid="ent0012" id="entity_BOOKING"><rect fill="#F1F1F1" height="62.5938" rx="2.5" ry="2.5" style="stroke:#181818;stroke-width:0.5;" width="174.9619" x="680.52" y="183.59"/><rect fill="#F1F1F1" height="10" style="stroke:#181818;stroke-width:0.5;" width="15" x="835.4819" y="188.59"/><rect fill="#F1F1F1" height="2" style="stroke:#181818;stroke-width:0.5;" width="4" x="833.4819" y="190.59"/><rect fill="#F1F1F1" height="2" style="stroke:#181818;stroke-width:0.5;" width="4" x="833.4819" y="194.59"/><text fill="#000000" font-family="sans-serif" font-size="14" font-style="italic" lengthAdjust="spacing" textLength="67.2793" x="729.3613" y="216.5851">&#171;service&#187;</text><text fill="#000000" font-family="sans-serif" font-size="14" lengthAdjust="spacing" textLength="134.9619" x="695.52" y="232.882">Servico de Reserva</text></g><!--entity AUTH--><g class="entity" data-entity="AUTH" data-source-line="15" data-uid="ent0013" id="entity_AUTH"><rect fill="#F1F1F1" height="62.5938" rx="2.5" ry="2.5" style="stroke:#181818;stroke-width:0.5;" width="210.0166" x="942.99" y="183.59"/><rect fill="#F1F1F1" height="10" style="stroke:#181818;stroke-width:0.5;" width="15" x="1133.0066" y="188.59"/><rect fill="#F1F1F1" height="2" style="stroke:#181818;stroke-width:0.5;" width="4" x="1131.0066" y="190.59"/><rect fill="#F1F1F1" height="2" style="stroke:#181818;stroke-width:0.5;" width="4" x="1131.0066" y="194.59"/><text fill="#000000" font-family="sans-serif" font-size="14" font-style="italic" lengthAdjust="spacing" textLength="67.2793" x="1009.3587" y="216.5851">&#171;service&#187;</text><text fill="#000000" font-family="sans-serif" font-size="14" lengthAdjust="spacing" textLength="170.0166" x="957.99" y="232.882">Servico de Autenticacao</text></g><!--entity LOCATION--><g class="entity" data-entity="LOCATION" data-source-line="16" data-uid="ent0014" id="entity_LOCATION"><rect fill="#F1F1F1" height="62.5938" rx="2.5" ry="2.5" style="stroke:#181818;stroke-width:0.5;" width="199.2842" x="85.36" y="183.59"/><rect fill="#F1F1F1" height="10" style="stroke:#181818;stroke-width:0.5;" width="15" x="264.6442" y="188.59"/><rect fill="#F1F1F1" height="2" style="stroke:#181818;stroke-width:0.5;" width="4" x="262.6442" y="190.59"/><rect fill="#F1F1F1" height="2" style="stroke:#181818;stroke-width:0.5;" width="4" x="262.6442" y="194.59"/><text fill="#000000" font-family="sans-serif" font-size="14" font-style="italic" lengthAdjust="spacing" textLength="67.2793" x="146.3624" y="216.5851">&#171;service&#187;</text><text fill="#000000" font-family="sans-serif" font-size="14" lengthAdjust="spacing" textLength="159.2842" x="100.36" y="232.882">Servico de Localizacao</text></g><!--entity MGMT--><g class="entity" data-entity="MGMT" data-source-line="17" data-uid="ent0015" id="entity_MGMT"><rect fill="#F1F1F1" height="62.5938" rx="2.5" ry="2.5" style="stroke:#181818;stroke-width:0.5;" width="227.8857" x="1241.06" y="183.59"/><rect fill="#F1F1F1" height="10" style="stroke:#181818;stroke-width:0.5;" width="15" x="1448.9457" y="188.59"/><rect fill="#F1F1F1" height="2" style="stroke:#181818;stroke-width:0.5;" width="4" x="1446.9457" y="190.59"/><rect fill="#F1F1F1" height="2" style="stroke:#181818;stroke-width:0.5;" width="4" x="1446.9457" y="194.59"/><text fill="#000000" font-family="sans-serif" font-size="14" font-style="italic" lengthAdjust="spacing" textLength="67.2793" x="1316.3632" y="216.5851">&#171;service&#187;</text><text fill="#000000" font-family="sans-serif" font-size="14" lengthAdjust="spacing" textLength="187.8857" x="1256.06" y="232.882">Servico de Gestao de Voos</text></g><!--entity EXT_FLIGHTS--><g class="entity" data-entity="EXT_FLIGHTS" data-source-line="27" data-uid="ent0022" id="entity_EXT_FLIGHTS"><rect fill="#F1F1F1" height="62.5938" rx="2.5" ry="2.5" style="stroke:#181818;stroke-width:0.5;" width="181.4424" x="265.28" y="336.19"/><rect fill="#F1F1F1" height="10" style="stroke:#181818;stroke-width:0.5;" width="15" x="426.7224" y="341.19"/><rect fill="#F1F1F1" height="2" style="stroke:#181818;stroke-width:0.5;" width="4" x="424.7224" y="343.19"/><rect fill="#F1F1F1" height="2" style="stroke:#181818;stroke-width:0.5;" width="4" x="424.7224" y="347.19"/><text fill="#000000" font-family="sans-serif" font-size="14" font-style="italic" lengthAdjust="spacing" textLength="75.2295" x="313.3864" y="369.1851">&#171;external&#187;</text><text fill="#000000" font-family="sans-serif" font-size="14" lengthAdjust="spacing" textLength="141.4424" x="280.28" y="385.482">API Externa de Voos</text></g><!--entity PAYMENT--><g class="entity" data-entity="PAYMENT" data-source-line="28" data-uid="ent0023" id="entity_PAYMENT"><rect fill="#F1F1F1" height="62.5938" rx="2.5" ry="2.5" style="stroke:#181818;stroke-width:0.5;" width="197.7598" x="482.12" y="336.19"/><rect fill="#F1F1F1" height="10" style="stroke:#181818;stroke-width:0.5;" width="15" x="659.8798" y="341.19"/><rect fill="#F1F1F1" height="2" style="stroke:#181818;stroke-width:0.5;" width="4" x="657.8798" y="343.19"/><rect fill="#F1F1F1" height="2" style="stroke:#181818;stroke-width:0.5;" width="4" x="657.8798" y="347.19"/><text fill="#000000" font-family="sans-serif" font-size="14" font-style="italic" lengthAdjust="spacing" textLength="75.2295" x="538.3851" y="369.1851">&#171;external&#187;</text><text fill="#000000" font-family="sans-serif" font-size="14" lengthAdjust="spacing" textLength="157.7598" x="497.12" y="385.482">Servico de Pagamento</text></g><!--entity EMAIL--><g class="entity" data-entity="EMAIL" data-source-line="29" data-uid="ent0024" id="entity_EMAIL"><rect fill="#F1F1F1" height="62.5938" rx="2.5" ry="2.5" style="stroke:#181818;stroke-width:0.5;" width="156.9355" x="714.53" y="336.19"/><rect fill="#F1F1F1" height="10" style="stroke:#181818;stroke-width:0.5;" width="15" x="851.4655" y="341.19"/><rect fill="#F1F1F1" height="2" style="stroke:#181818;stroke-width:0.5;" width="4" x="849.4655" y="343.19"/><rect fill="#F1F1F1" height="2" style="stroke:#181818;stroke-width:0.5;" width="4" x="849.4655" y="347.19"/><text fill="#000000" font-family="sans-serif" font-size="14" font-style="italic" lengthAdjust="spacing" textLength="75.2295" x="750.383" y="369.1851">&#171;external&#187;</text><text fill="#000000" font-family="sans-serif" font-size="14" lengthAdjust="spacing" textLength="116.9355" x="729.53" y="385.482">Servico de Email</text></g><!--entity GEOLOC--><g class="entity" data-entity="GEOLOC" data-source-line="30" data-uid="ent0025" id="entity_GEOLOC"><rect fill="#F1F1F1" height="62.5938" rx="2.5" ry="2.5" style="stroke:#181818;stroke-width:0.5;" width="193.8564" x="36.07" y="336.19"/><rect fill="#F1F1F1" height="10" style="stroke:#181818;stroke-width:0.5;" width="15" x="209.9264" y="341.19"/><rect fill="#F1F1F1" height="2" style="stroke:#181818;stroke-width:0.5;" width="4" x="207.9264" y="343.19"/><rect fill="#F1F1F1" height="2" style="stroke:#181818;stroke-width:0.5;" width="4" x="207.9264" y="347.19"/><text fill="#000000" font-family="sans-serif" font-size="14" font-style="italic" lengthAdjust="spacing" textLength="75.2295" x="90.3835" y="369.1851">&#171;external&#187;</text><text fill="#000000" font-family="sans-serif" font-size="14" lengthAdjust="spacing" textLength="153.8564" x="51.07" y="385.482">API de Geolocalizacao</text></g><!--entity DB_FLIGHTS--><g class="entity" data-entity="DB_FLIGHTS" data-source-line="34" data-uid="ent0027" id="entity_DB_FLIGHTS"><rect fill="#F1F1F1" height="62.5938" rx="2.5" ry="2.5" style="stroke:#181818;stroke-width:0.5;" width="214.2275" x="926.89" y="336.19"/><rect fill="#F1F1F1" height="10" style="stroke:#181818;stroke-width:0.5;" width="15" x="1121.1175" y="341.19"/><rect fill="#F1F1F1" height="2" style="stroke:#181818;stroke-width:0.5;" width="4" x="1119.1175" y="343.19"/><rect fill="#F1F1F1" height="2" style="stroke:#181818;stroke-width:0.5;" width="4" x="1119.1175" y="347.19"/><text fill="#000000" font-family="sans-serif" font-size="14" font-style="italic" lengthAdjust="spacing" textLength="82.0381" x="987.9847" y="369.1851">&#171;database&#187;</text><text fill="#000000" font-family="sans-serif" font-size="14" lengthAdjust="spacing" textLength="174.2275" x="941.89" y="385.482">Banco de Dados de Voos</text></g><!--entity DB_USERS--><g class="entity" data-entity="DB_USERS" data-source-line="35" data-uid="ent0028" id="entity_DB_USERS"><rect fill="#F1F1F1" height="62.5938" rx="2.5" ry="2.5" style="stroke:#181818;stroke-width:0.5;" width="240.7236" x="1455.64" y="336.19"/><rect fill="#F1F1F1" height="10" style="stroke:#181818;stroke-width:0.5;" width="15" x="1676.3636" y="341.19"/><rect fill="#F1F1F1" height="2" style="stroke:#181818;stroke-width:0.5;" width="4" x="1674.3636" y="343.19"/><rect fill="#F1F1F1" height="2" style="stroke:#181818;stroke-width:0.5;" width="4" x="1674.3636" y="347.19"/><text fill="#000000" font-family="sans-serif" font-size="14" font-style="italic" lengthAdjust="spacing" textLength="82.0381" x="1529.9828" y="369.1851">&#171;database&#187;</text><text fill="#000000" font-family="sans-serif" font-size="14" lengthAdjust="spacing" textLength="200.7236" x="1470.64" y="385.482">Banco de Dados de Usuarios</text></g><!--entity DB_BOOKINGS--><g class="entity" data-entity="DB_BOOKINGS" data-source-line="36" data-uid="ent0029" id="entity_DB_BOOKINGS"><rect fill="#F1F1F1" height="62.5938" rx="2.5" ry="2.5" style="stroke:#181818;stroke-width:0.5;" width="244.3877" x="1175.81" y="336.19"/><rect fill="#F1F1F1" height="10" style="stroke:#181818;stroke-width:0.5;" width="15" x="1400.1977" y="341.19"/><rect fill="#F1F1F1" height="2" style="stroke:#181818;stroke-width:0.5;" width="4" x="1398.1977" y="343.19"/><rect fill="#F1F1F1" height="2" style="stroke:#181818;stroke-width:0.5;" width="4" x="1398.1977" y="347.19"/><text fill="#000000" font-family="sans-serif" font-size="14" font-style="italic" lengthAdjust="spacing" textLength="82.0381" x="1251.9848" y="369.1851">&#171;database&#187;</text><text fill="#000000" font-family="sans-serif" font-size="14" lengthAdjust="spacing" textLength="204.3877" x="1190.81" y="385.482">Banco de Dados de Reservas</text></g><!--link FS_IF to SEARCH--><g class="link" data-entity-1="FS_IF" data-entity-2="SEARCH" data-source-line="19" data-uid="lnk16" id="link_FS_IF_SEARCH"><path d="M338.32,214.89 C349.63,214.89 360.93,214.89 372.23,214.89" fill="none" id="FS_IF-SEARCH" style="stroke:#181818;stroke-width:1;"/></g><!--link BK_IF to BOOKING--><g class="link" data-entity-1="BK_IF" data-entity-2="BOOKING" data-source-line="20" data-uid="lnk17" id="link_BK_IF_BOOKING"><path d="M646.47,214.89 C657.7,214.89 668.94,214.89 680.17,214.89" fill="none" id="BK_IF-BOOKING" style="stroke:#181818;stroke-width:1;"/></g><!--link AUTH_IF to AUTH--><g class="link" data-entity-1="AUTH_IF" data-entity-2="AUTH" data-source-line="21" data-uid="lnk18" id="link_AUTH_IF_AUTH"><path d="M908.31,214.89 C919.77,214.89 931.23,214.89 942.69,214.89" fill="none" id="AUTH_IF-AUTH" style="stroke:#181818;stroke-width:1;"/></g><!--link LOC_IF to LOCATION--><g class="link" data-entity-1="LOC_IF" data-entity-2="LOCATION" data-source-line="22" data-uid="lnk19" id="link_LOC_IF_LOCATION"><path d="M50.28,214.89 C61.86,214.89 73.44,214.89 85.01,214.89" fill="none" id="LOC_IF-LOCATION" style="stroke:#181818;stroke-width:1;"/></g><!--link MGMT_IF to MGMT--><g class="link" data-entity-1="MGMT_IF" data-entity-2="MGMT" data-source-line="23" data-uid="lnk20" id="link_MGMT_IF_MGMT"><path d="M1206.26,214.89 C1217.78,214.89 1229.31,214.89 1240.83,214.89" fill="none" id="MGMT_IF-MGMT" style="stroke:#181818;stroke-width:1;"/></g><!--link Frontend Cliente to FS_IF--><g class="link" data-entity-1="Frontend Cliente" data-entity-2="FS_IF" data-source-line="40" data-uid="lnk30" id="link_Frontend Cliente_FS_IF"><path d="M558.28,81.94 C485.58,91.44 384.51,108.98 355,135.59 C334.36,154.2 330.3912,183.5786 329.5312,199.6186" fill="none" id="Frontend Cliente-to-FS_IF" style="stroke:#181818;stroke-width:1;stroke-dasharray:7.0,7.0;"/><polygon fill="#181818" points="329.21,205.61,333.6861,196.8371,329.4777,200.6172,325.6976,196.4088,329.21,205.61" style="stroke:#181818;stroke-width:1;"/></g><!--link Frontend Cliente to BK_IF--><g class="link" data-entity-1="Frontend Cliente" data-entity-2="BK_IF" data-source-line="41" data-uid="lnk31" id="link_Frontend Cliente_BK_IF"><path d="M637,103.8 C637,136.43 637,180.11 637,199.62" fill="none" id="Frontend Cliente-to-BK_IF" style="stroke:#181818;stroke-width:1;stroke-dasharray:7.0,7.0;"/><polygon fill="#181818" points="637,205.62,641,196.62,637,200.62,633,196.62,637,205.62" style="stroke:#181818;stroke-width:1;"/></g><!--link Frontend Cliente to AUTH_IF--><g class="link" data-entity-1="Frontend Cliente" data-entity-2="AUTH_IF" data-source-line="42" data-uid="lnk32" id="link_Frontend Cliente_AUTH_IF"><path d="M681.47,104.05 C697.08,113.29 715.18,122.35 733,127.59 C747.95,131.99 860.63,126.12 873,135.59 C895.17,152.58 898.5041,183.1218 898.9041,199.5618" fill="none" id="Frontend Cliente-to-AUTH_IF" style="stroke:#181818;stroke-width:1;stroke-dasharray:7.0,7.0;"/><polygon fill="#181818" points="899.05,205.56,902.8299,196.4654,898.9284,200.5615,894.8323,196.66,899.05,205.56" style="stroke:#181818;stroke-width:1;"/></g><!--link Frontend Cliente to LOC_IF--><g class="link" data-entity-1="Frontend Cliente" data-entity-2="LOC_IF" data-source-line="43" data-uid="lnk33" id="link_Frontend Cliente_LOC_IF"><path d="M558.25,77.27 C411.03,85.38 105.54,105.61 68,135.59 C46.2,153 42.2285,182.9969 41.4385,199.4069" fill="none" id="Frontend Cliente-to-LOC_IF" style="stroke:#181818;stroke-width:1;stroke-dasharray:7.0,7.0;"/><polygon fill="#181818" points="41.15,205.4,45.5781,196.6028,41.3904,200.4058,37.5874,196.2181,41.15,205.4" style="stroke:#181818;stroke-width:1;"/></g><!--link Frontend Admin to MGMT_IF--><g class="link" data-entity-1="Frontend Admin" data-entity-2="MGMT_IF" data-source-line="44" data-uid="lnk34" id="link_Frontend Admin_MGMT_IF"><path d="M903.41,78.15 C992.3,85.31 1131.92,101.68 1171,135.59 C1191.99,153.8 1195.8181,183.3866 1196.5781,199.5466" fill="none" id="Frontend Admin-to-MGMT_IF" style="stroke:#181818;stroke-width:1;stroke-dasharray:7.0,7.0;"/><polygon fill="#181818" points="1196.86,205.54,1200.4328,196.362,1196.6251,200.5455,1192.4416,196.7378,1196.86,205.54" style="stroke:#181818;stroke-width:1;"/></g><!--link SEARCH to EXT_FLIGHTS--><g class="link" data-entity-1="SEARCH" data-entity-2="EXT_FLIGHTS" data-source-line="46" data-uid="lnk35" id="link_SEARCH_EXT_FLIGHTS"><path d="M457.3,246.36 C435.34,272.41 407.7571,305.1025 385.7471,331.2125" fill="none" id="SEARCH-to-EXT_FLIGHTS" style="stroke:#181818;stroke-width:1;stroke-dasharray:7.0,7.0;"/><polygon fill="#181818" points="381.88,335.8,390.739,331.4968,385.1026,331.9771,384.6224,326.3406,381.88,335.8" style="stroke:#181818;stroke-width:1;"/></g><!--link SEARCH to DB_FLIGHTS--><g class="link" data-entity-1="SEARCH" data-entity-2="DB_FLIGHTS" data-source-line="47" data-uid="lnk36" id="link_SEARCH_DB_FLIGHTS"><path d="M542.68,246.64 C563.71,256 587.89,265.14 611,270.19 C670.95,283.28 828.12,260.94 887,278.19 C927,289.9 962.3575,311.6811 990.5875,332.2111" fill="none" id="SEARCH-to-DB_FLIGHTS" style="stroke:#181818;stroke-width:1;stroke-dasharray:7.0,7.0;"/><polygon fill="#181818" points="995.44,335.74,990.5139,327.2116,991.3963,332.7992,985.8086,333.6816,995.44,335.74" style="stroke:#181818;stroke-width:1;"/></g><!--link BOOKING to PAYMENT--><g class="link" data-entity-1="BOOKING" data-entity-2="PAYMENT" data-source-line="48" data-uid="lnk37" id="link_BOOKING_PAYMENT"><path d="M730.16,246.36 C697.82,272.41 656.1924,305.9259 623.7824,332.0359" fill="none" id="BOOKING-to-PAYMENT" style="stroke:#181818;stroke-width:1;stroke-dasharray:7.0,7.0;"/><polygon fill="#181818" points="619.11,335.8,628.628,333.2687,623.0037,332.6632,623.6091,327.0389,619.11,335.8" style="stroke:#181818;stroke-width:1;"/></g><!--link BOOKING to EMAIL--><g class="link" data-entity-1="BOOKING" data-entity-2="EMAIL" data-source-line="49" data-uid="lnk38" id="link_BOOKING_EMAIL"><path d="M773.06,246.36 C777.38,272.41 782.5862,303.7712 786.9262,329.8812" fill="none" id="BOOKING-to-EMAIL" style="stroke:#181818;stroke-width:1;stroke-dasharray:7.0,7.0;"/><polygon fill="#181818" points="787.91,335.8,790.3801,326.2659,787.0901,330.8677,782.4884,327.5777,787.91,335.8" style="stroke:#181818;stroke-width:1;"/></g><!--link BOOKING to DB_BOOKINGS--><g class="link" data-entity-1="BOOKING" data-entity-2="DB_BOOKINGS" data-source-line="50" data-uid="lnk39" id="link_BOOKING_DB_BOOKINGS"><path d="M816.37,246.66 C833.58,256.02 853.53,265.16 873,270.19 C934.56,286.08 1098.2,259.58 1159,278.19 C1197.27,289.9 1230.5128,311.5406 1257.0728,332.0706" fill="none" id="BOOKING-to-DB_BOOKINGS" style="stroke:#181818;stroke-width:1;stroke-dasharray:7.0,7.0;"/><polygon fill="#181818" points="1261.82,335.74,1257.1455,327.0711,1257.864,332.6822,1252.253,333.4007,1261.82,335.74" style="stroke:#181818;stroke-width:1;"/></g><!--link AUTH to DB_USERS--><g class="link" data-entity-1="AUTH" data-entity-2="DB_USERS" data-source-line="51" data-uid="lnk40" id="link_AUTH_DB_USERS"><path d="M1105.23,246.63 C1125.44,255.99 1148.69,265.13 1171,270.19 C1228.89,283.3 1381.28,260.67 1438,278.19 C1476.05,289.94 1509.0154,311.5544 1535.3754,332.0744" fill="none" id="AUTH-to-DB_USERS" style="stroke:#181818;stroke-width:1;stroke-dasharray:7.0,7.0;"/><polygon fill="#181818" points="1540.11,335.76,1535.4652,327.0752,1536.1645,332.6886,1530.5511,333.3879,1540.11,335.76" style="stroke:#181818;stroke-width:1;"/></g><!--link LOCATION to GEOLOC--><g class="link" data-entity-1="LOCATION" data-entity-2="GEOLOC" data-source-line="52" data-uid="lnk41" id="link_LOCATION_GEOLOC"><path d="M174.48,246.36 C165.48,272.41 154.5672,304.0182 145.5572,330.1282" fill="none" id="LOCATION-to-GEOLOC" style="stroke:#181818;stroke-width:1;stroke-dasharray:7.0,7.0;"/><polygon fill="#181818" points="143.6,335.8,150.317,328.5971,145.231,331.0735,142.7546,325.9875,143.6,335.8" style="stroke:#181818;stroke-width:1;"/></g><!--link MGMT to DB_FLIGHTS--><g class="link" data-entity-1="MGMT" data-entity-2="DB_FLIGHTS" data-source-line="53" data-uid="lnk42" id="link_MGMT_DB_FLIGHTS"><path d="M1290.57,246.68 C1269.74,255.52 1246.26,264.34 1224,270.19 C1195.42,277.69 1185.55,267.51 1158,278.19 C1123.99,291.36 1095.2019,312.1163 1071.6519,332.0263" fill="none" id="MGMT-to-DB_FLIGHTS" style="stroke:#181818;stroke-width:1;stroke-dasharray:7.0,7.0;"/><polygon fill="#181818" points="1067.07,335.9,1076.5254,333.144,1070.8883,332.6719,1071.3604,327.0348,1067.07,335.9" style="stroke:#181818;stroke-width:1;"/></g><!--link MGMT to DB_BOOKINGS--><g class="link" data-entity-1="MGMT" data-entity-2="DB_BOOKINGS" data-source-line="54" data-uid="lnk43" id="link_MGMT_DB_BOOKINGS"><path d="M1343.47,246.36 C1333.61,272.41 1321.6235,304.0783 1311.7435,330.1883" fill="none" id="MGMT-to-DB_BOOKINGS" style="stroke:#181818;stroke-width:1;stroke-dasharray:7.0,7.0;"/><polygon fill="#181818" points="1309.62,335.8,1316.5463,328.7981,1311.3895,331.1236,1309.0641,325.9668,1309.62,335.8" style="stroke:#181818;stroke-width:1;"/></g><!--link MGMT to DB_USERS--><g class="link" data-entity-1="MGMT" data-entity-2="DB_USERS" data-source-line="55" data-uid="lnk44" id="link_MGMT_DB_USERS"><path d="M1399.99,246.55 C1438.23,272.6 1487.8921,306.4408 1526.1121,332.4908" fill="none" id="MGMT-to-DB_USERS" style="stroke:#181818;stroke-width:1;stroke-dasharray:7.0,7.0;"/><polygon fill="#181818" points="1531.07,335.87,1525.8859,327.4959,1526.9384,333.054,1521.3803,334.1065,1531.07,335.87" style="stroke:#181818;stroke-width:1;"/></g><!--SRC=[TLJRRgCm47tFLrXvwLFx1LKaI0b13I4AfDhLggfcZJUrIl0AmwfgrN_V6Tka3eGtVEOSUyvS-0ly3Ow2pLUDgbjHbtFsEMFiLtzaoqeA_7fcz_VYNV2kXT-LM2mkE45valM8yJMRrQh4gtFH_9DSQPPdWRrUegxv0vpUhUJnjSq5DFnrpa2pLVwIh2uveL9liZwQSFWu2WTTQwN1eLYFeXl5ePMgDenDjXmHKgYn0YTqQIXfd1R48OSkSuOkmavpe8ydfJHvrIQ6HacKHy5-kHv8ze8uC2A7MVQOREC16rrW2f831pMIaBC1dtnLykCg7Mq6HP9j1v9Ow1RKf0boJhPD1zZjjobJSmI-4tULHinbPWkBP-zfLqa4pSqu3xnINOaDsoMQHU_OWHgq6pZ4UiXFK5YeiXb6FugNrIQ9rqK-iBQ38r0BrLYq2twcqROO2A8JoEhA2scGRFfyJCbKTLdeItuSPUYOl9M0Wm-QnXLgcdPKFq2fUeC6FOE-nrvfRtm8VOjZrK5tqCW9vI6FzXCwDutNTQwpEHcvGMe575V6LbJFhlmDxkuMRbCdWdPF9uBzeaw4tPQEVZ0KEw-ddKw3-MFXmLubdJy3z_FWOxRjFk8NXTBjGLlXVieDwcQ0CXk-wsFdwtpGNFSV]--></g></svg>